<?xml version="1.0" encoding="UTF-8"?>
<!DOCTYPE svg PUBLIC "-//W3C//DTD SVG 1.1//EN" "http://www.w3.org/Graphics/SVG/1.1/DTD/svg11.dtd">
<!-- Creator: CorelDRAW X8 -->
<svg xmlns="http://www.w3.org/2000/svg" xml:space="preserve" width="21.8407mm" height="9.9403mm" version="1.1" style="shape-rendering:geometricPrecision; text-rendering:geometricPrecision; image-rendering:optimizeQuality; fill-rule:evenodd; clip-rule:evenodd"
viewBox="0 0 525 239"
 xmlns:xlink="http://www.w3.org/1999/xlink">
 <defs>
  <style type="text/css">
   <![CDATA[
    .fil0 {fill:#FEFEFE}
    .fil1 {fill:#C71803}
    .fil2 {fill:#FEFEFE;fill-rule:nonzero}
   ]]>
  </style>
 </defs>
 <g id="Layer_x0020_1">
  <metadata id="CorelCorpID_0Corel-Layer"/>
  <g id="_2553492608544">
   <path class="fil0" d="M233 183c2,0 5,0 7,1 6,1 43,1 51,2 3,0 2,1 6,1 9,0 54,2 58,3 5,1 38,0 50,2 4,1 11,1 15,1 13,1 39,3 50,0 2,-1 4,-1 6,-2l8 -4c0,0 1,0 1,0l5 -4c0,0 0,0 0,0 2,-1 5,-3 7,-5l4 -4c6,-8 11,-19 12,-29l2 -22c0,-3 0,-10 1,-14l2 -31c1,-6 1,-3 1,-11l5 -60c1,-3 2,-7 -3,-7 -3,0 -11,1 -14,2 -2,0 -1,0 -3,0 -1,1 -2,1 -3,1l-21 2c-2,1 -34,4 -40,5 -3,1 -3,1 -6,1 -8,1 -15,3 -20,3l-21 2c-4,2 -12,2 -20,3 -4,1 -9,1 -13,2l-41 5c-2,0 -7,0 -9,1 -5,2 -14,1 -20,3 -5,3 -8,3 -13,6l-9 7c-2,2 -5,5 -7,8 -1,1 -2,4 -3,5 -6,11 -5,21 -7,30 -2,6 -6,30 -6,32l-10 52c0,1 0,4 -1,6 0,2 -1,4 -1,7z"/>
   <path class="fil1" d="M333 161l25 0 3 -18c2,-4 2,-10 3,-13 1,-2 1,-3 1,-5 2,-7 3,-20 8,-25l1 0c0,0 0,-1 0,-1 3,-2 19,-6 19,8l-12 54c2,0 23,1 25,-1 1,0 1,-1 1,-3 0,-1 1,-2 1,-3l5 -23c1,-3 1,-8 2,-11 2,-7 2,-10 3,-14 1,-7 4,-11 -1,-18 -3,-3 -9,-4 -15,-4 -4,0 -13,0 -18,0 -1,1 0,1 -1,1 -9,3 -7,4 -11,5l10 -44c3,-8 13,-7 19,-7 6,0 17,-1 22,1 1,1 1,1 3,2 0,-8 2,-11 3,-16 -6,0 -53,0 -57,1 -14,2 -14,18 -16,27 0,2 -1,2 -2,5 0,2 0,4 -1,7 0,2 -1,3 -1,5 -1,2 -1,4 -1,6l-3 12c0,2 0,4 -1,6 0,2 -1,3 -1,6 -1,2 -1,4 -1,6 -1,2 -2,3 -2,6l-5 23c-1,4 -2,8 -2,12 -1,5 -2,8 -3,13z"/>
   <path class="fil0" d="M41 41c-2,4 -5,0 -12,9 -4,5 -5,17 -6,23 -1,2 -1,1 -2,4 0,3 0,6 -1,9l-3 14c-1,2 -1,1 -1,4 -1,3 -1,7 -2,9 -2,4 -2,10 -3,14 0,3 -1,3 -1,4 -1,3 -1,7 -2,10 0,2 -1,2 -1,4l-5 23c-1,3 -3,6 -2,9 0,0 1,0 1,0 0,1 9,1 10,1 3,0 12,1 14,-1 0,-1 0,-1 1,-2 0,-2 1,-9 2,-13 2,-4 5,-26 6,-28l2 -6c1,-6 2,-12 3,-18l8 -34c1,-9 1,-6 3,-13 0,-1 0,-3 0,-4 1,-2 1,-3 1,-5 1,-3 2,-5 3,-13 5,-1 10,0 15,0 14,0 14,4 15,-2 0,-2 1,-3 1,-4 1,-2 2,-6 1,-8 -1,-1 -76,-1 -83,-1 -1,3 -1,10 -1,13 0,3 1,3 4,3 3,-1 4,-1 6,-1 9,-1 20,-1 29,0z"/>
   <path class="fil0" d="M136 169c-3,-1 -14,2 -18,2 -6,0 -11,-2 -15,-5 -1,-1 -4,-6 -4,-8 -1,-3 0,-12 1,-15l0 -4c1,-3 1,-7 2,-10 3,-1 37,0 43,0 12,0 9,0 10,-11 1,-5 4,-15 1,-20 -4,-7 -9,-12 -17,-14 -4,-1 -22,-1 -27,0 -6,1 -14,5 -18,10 0,0 0,0 0,0 -4,5 -7,9 -10,15l-2 5c-1,2 -3,9 -4,12 0,2 0,3 -1,5 -2,15 -4,18 0,33 1,3 6,10 10,12 7,2 7,2 15,2l33 0c4,-1 2,-7 1,-9zm-31 -52l26 0c1,-2 3,-12 1,-17 -4,-9 -11,-10 -18,-4l-3 4 -6 17z"/>
   <path class="fil1" d="M254 161c5,0 13,1 16,-2l6 -7c2,-1 1,-2 3,-2 0,2 1,3 1,5 2,6 1,6 8,6l22 0c-1,-8 -11,-33 -10,-36l27 -31c1,-1 0,-1 1,-2l7 -8 -22 0c-1,8 -1,9 -6,15 -2,2 -10,12 -12,13l-2 -6c-1,-3 -1,-5 -2,-8l-3 -7c0,-2 -1,-4 -2,-7l-29 0c0,3 5,7 8,20 1,2 2,3 2,5 1,2 1,4 1,6 1,2 2,2 2,5 1,6 0,3 3,9 0,1 0,1 0,3 1,2 2,3 1,5l-4 5c-1,1 -1,0 -1,1l-12 13c-1,2 -2,3 -3,5z"/>
   <path class="fil0" d="M225 170c-3,-3 -20,4 -29,-1 -1,-1 -2,-2 -3,-3 0,0 0,0 0,0l-1 -1c-3,-3 -4,-7 -4,-11 0,-7 2,-18 3,-25l2 -5c1,-5 0,-4 2,-11 2,-4 0,-5 4,-10 2,-5 0,-2 3,-6 1,-1 0,0 2,-1 7,-6 17,-4 22,0 5,3 6,0 11,-3 2,-1 3,0 4,-2 0,-1 1,-2 -3,-4 -9,-4 -25,-4 -35,-3 -2,0 -10,3 -12,4 -8,5 -6,4 -11,10l-7 11c0,2 -1,4 -2,6l-3 12c-3,9 -6,31 0,40 8,13 13,11 36,11 5,0 10,0 15,0 4,0 6,1 7,-1 0,-1 0,-2 0,-4 0,-2 0,-2 -1,-3z"/>
   <path class="fil1" d="M447 101c6,-1 5,-3 22,-2 2,0 7,2 7,4 1,2 1,7 -1,10 -1,1 -19,0 -29,5 -2,2 -5,2 -8,5l-7 7c0,0 0,0 0,1 -5,6 -6,13 -5,22l20 0c1,-5 2,-7 3,-12 0,-2 1,-5 1,-6 2,-5 7,-9 11,-10 5,-2 6,-3 12,-2 0,4 -5,25 -7,30l21 0 3 -13c1,-2 1,-4 1,-6 1,-3 2,-4 2,-6 2,-9 1,-7 3,-16 1,-5 3,-13 0,-17 -2,-2 -2,-2 -5,-3 -4,-3 -6,-3 -13,-3 -10,0 -21,0 -31,1l0 11z"/>
   <polygon class="fil2" points="43,239 43,225 45,225 45,239 "/>
   <polygon id="1" class="fil2" points="80,227 80,239 77,239 77,227 71,227 71,225 86,225 86,227 "/>
   <path id="2" class="fil2" d="M134 227l-10 0 0 4 9 0c1,0 2,0 3,0 0,1 0,2 0,3l0 1c0,2 0,3 0,3 -1,1 -2,1 -3,1l-8 0c-2,0 -2,0 -3,-1 0,0 -1,-1 -1,-3l0 0 3 0 0 2 10 0 0 -4 -9 0c-1,0 -2,-1 -2,-1 -1,-1 -1,-1 -1,-3l0 -1c0,-1 0,-2 1,-3 0,0 1,0 2,0l8 0c1,0 2,0 2,0 1,1 1,2 1,3l0 0 -2 1 0 -2z"/>
   <path id="3" class="fil2" d="M167 237l12 0 0 -10 -12 0 0 10zm-2 -9c0,-1 0,-2 0,-3 1,0 2,0 3,0l10 0c1,0 2,0 2,0 1,1 1,2 1,3l0 7c0,2 0,3 -1,3 0,1 -1,1 -2,1l-10 0c-1,0 -2,0 -3,-1 0,0 0,-1 0,-3l0 -7z"/>
   <polygon id="4" class="fil2" points="210,239 210,225 212,225 212,237 223,237 223,239 "/>
   <path id="5" class="fil2" d="M250 225l0 12 11 0 0 -12 2 0 0 10c0,2 0,3 -1,3 0,1 -1,1 -2,1l-9 0c-1,0 -2,0 -2,-1 -1,0 -1,-1 -1,-3l0 -10 2 0z"/>
   <polygon id="6" class="fil2" points="297,227 297,239 295,239 295,227 289,227 289,225 304,225 304,227 "/>
   <polygon id="7" class="fil2" points="329,239 329,225 332,225 332,239 "/>
   <path id="8" class="fil2" d="M363 237l12 0 0 -10 -12 0 0 10zm-3 -9c0,-1 1,-2 1,-3 1,0 1,0 3,0l10 0c1,0 2,0 2,0 1,1 1,2 1,3l0 7c0,2 0,3 -1,3 0,1 -1,1 -2,1l-10 0c-2,0 -2,0 -3,-1 0,0 -1,-1 -1,-3l0 -7z"/>
   <path id="9" class="fil2" d="M406 239l0 -14 1 0 11 9c0,0 0,1 0,1 1,0 1,1 1,1 0,-1 0,-1 0,-2 0,0 0,-1 0,-2l0 -7 2 0 0 14 -1 0 -11 -10c0,0 0,0 0,0 -1,-1 -1,-1 -1,-2 0,1 0,1 0,2 0,0 0,1 0,1l0 9 -2 0z"/>
   <path id="10" class="fil2" d="M462 227l-10 0 0 4 9 0c1,0 2,0 3,0 0,1 0,2 0,3l0 1c0,2 0,3 0,3 -1,1 -2,1 -3,1l-8 0c-1,0 -2,0 -3,-1 0,0 -1,-1 -1,-3l0 0 3 0 0 2 10 0 0 -4 -9 0c-1,0 -2,-1 -2,-1 -1,-1 -1,-1 -1,-3l0 -1c0,-1 0,-2 1,-3 0,0 1,0 2,0l8 0c1,0 2,0 2,0 1,1 1,2 1,3l0 0 -2 1 0 -2z"/>
  </g>
 </g>
</svg>
